<?xml version="1.0" encoding="UTF-8"?>
<svg width="648pt" height="313pt" version="1.1" viewBox="0 0 864 418" xml:space="preserve" xmlns="http://www.w3.org/2000/svg">
<style type="text/css">
	.st0{fill:#E3336F;}
	.st1{fill:#727273;}
</style>
<g transform="translate(-111 -287)">
	<path class="st0" d="m124 632 4.4-5.1c10 9.2 19 14 33 14s23-7.6 23-18v-0.3c0-9.6-5.1-15-26-19-22-4.4-31-12-31-26v-0.3c0-14 12-24 29-24 13 0 22 3.6 31 11l-4.3 5.3c-8.6-7.4-17-10-27-10-13 0-22 7.6-22 17v0.3c0 9.6 4.9 15 26 20 21 4.3 30 12 30 25v0.3c0 15-13 25-30 25-14 0.1-26-4.7-37-14z"/>
	<path class="st0" d="m212 579h6.4v15c5.7-8.7 14-16 27-16 16 0 32 13 32 34v0.3c0 22-16 35-32 35-13 0-22-7.5-27-16v35h-6.4zm59 33v-0.3c0-17-12-28-26-28s-27 12-27 28v0.3c0 17 13 28 27 28s26-10 26-28z"/>
	<path class="st0" d="m292 626v-0.3c0-14 12-22 29-22 9.2 0 16 1.2 22 2.9v-2.9c0-13-8.2-20-22-20-8 0-15 2.2-21 5.3l-2.3-5.6c7.3-3.4 14-5.7 24-5.7 8.9 0 16 2.5 21 7.3 4.4 4.4 6.7 10 6.7 19v41h-6.2v-11c-4.5 6.4-13 13-25 13-12-0.1-26-7.1-26-21zm51-5.6v-7.5c-5.6-1.4-13-3-22-3-14 0-22 6.2-22 15v0.3c0 9.6 9.1 15 19 15 13-0.1 25-8.4 25-20z"/>
	<path class="st1" d="m379 554h7.5l36 84 36-84h7.1l-40 91h-6z"/>
	<path class="st1" d="m469 612v-0.3c0-18 14-35 34-35s34 16 34 34v0.3c0 18-14 35-34 35s-34-16-34-34zm61 0v-0.3c0-16-12-29-27-29-16 0-27 13-27 28v0.3c0 16 12 29 27 29 16 0 27-13 27-28z"/>
	<path class="st1" d="m555 619v-40h6.4v39c0 14 7.7 23 21 23 13 0 23-9.9 23-24v-38h6.4v66h-6.4v-12c-4.4 7.8-12 14-24 14-17 0-26-11-26-27z"/>
	<path class="st1" d="m631 612v-0.3c0-18 15-35 34-35 12 0 20 5.7 26 12l-4.6 4.7c-5.7-5.8-12-11-22-11-15 0-27 13-27 28v0.3c0 16 12 29 27 29 9.3 0 17-4.8 22-11l4.4 3.9c-6.7 7.7-15 13-27 13-19-0.1-34-16-34-34z"/>
	<path class="st1" d="m710 550h6.4v41c4.4-7.8 12-14 24-14 17 0 26 11 26 27v40h-6.4v-39c0-14-7.7-23-21-23-13 0-23 9.9-23 24v38h-6.4z"/>
	<path class="st1" d="m785 612v-0.3c0-19 14-34 31-34 18 0 30 15 30 35 0 1.2 0 1.6-0.1 2.6h-55c1.2 16 13 26 26 26 10 0 17-4.5 23-10l4.4 3.9c-6.7 7.3-15 12-27 12-17 0-32-14-32-34zm55-3.2c-0.9-13-8.6-26-24-26-13 0-23 11-24 26z"/>
	<path class="st1" d="m865 579h6.4v19c5.2-12 16-20 29-20v7h-0.6c-15 0-29 12-29 33v27h-6.4z"/>
	<path class="st1" d="m911 637 3.8-5.1c7.3 5.6 15 8.7 24 8.7 8.9 0 16-4.9 16-13v-0.3c0-7.8-8.3-11-18-13-11-3.1-23-6.4-23-18v-0.3c0-11 8.9-18 22-18 7.9 0 17 2.9 24 7.3l-3.4 5.3c-6.1-4-13-6.6-20-6.6-9.1 0-15 4.9-15 12v0.3c0 7.4 8.9 10 18 13 11 3 22 6.9 22 18v0.3c0 12-10 19-23 19-9.7 0.2-20-3.7-27-9.4z"/>
		<path class="st0" d="m349 691-2.9-1.9c0.3-0.5 34-53 17-115-17-63-7.7-92-7.3-93l3.3 1.1-1.6-0.5 1.6 0.5c-0.1 0.3-9 29 7.4 91 17 63-17 117-18 118z"/>
		<path class="st0" d="m356 300c-32 36-32 95 0 131 32-36 32-95 0-131z"/>
			<path class="st0" d="m435 356c-46 13-79 62-72 110 46-13 79-62 72-110z"/>
			<path class="st0" d="m277 356c46 13 79 62 72 110-46-13-79-62-72-110z"/>
			<path class="st0" d="m411 438s73-49 165-15c0 0-50-44-142-23 0.1 0-4.9 22-23 38z"/>
			<path class="st0" d="m300 438s-73-49-165-15c0 0 50-44 142-23 0 0 5 22 23 38z"/>
			<path class="st0" d="m180 419s66-5.8 104 17 53 31 72 32c0 0-31 28-68-8.4s-108-41-108-41z"/>
			<path class="st0" d="m532 419s-66-5.8-104 17-53 31-72 32c0 0 31 28 68-8.4s108-41 108-41z"/>
		<path class="st0" d="m392 467c-12-2.5-24-0.5-36 1.8-12-2.3-24-4.3-36-1.8-8.8 1.9-18 9.6-17 20 1.8 14 19 20 30 26 11 6.3 17 11 21 15 1.1 1.1 2 2 2.7 2.8 0.7-0.8 1.6-1.8 2.7-2.8 3.8-3.6 10-8.3 21-15 11-6.2 28-12 30-26 1.4-9.9-7.9-18-17-20z"/>
</g>
</svg>
